solid OpenSCAD_Model
  facet normal 0 0 -1
    outer loop
      vertex 2.01731656763491 1.4761204674887132 0
      vertex 1.9 1.5339745962155613 0
      vertex 1.7912385709912793 1.6066466597087647 0
    endloop
  endfacet
  facet normal 0 0 -1
    outer loop
      vertex 1.6066466597087647 1.7912385709912793 0
      vertex 1.5339745962155613 1.9 0
      vertex 1.4761204674887132 2.01731656763491 0
    endloop
  endfacet
  facet normal 0 0 -1
    outer loop
      vertex 2.2694738077799483 1.4085551386261894 0
      vertex 8.35469545189817 1.4085551386261894 0
      vertex 2.4 1.4 0
    endloop
  endfacet
  facet normal -0.06540312923014245 -0.9978589232386035 1.5801911400826254e-19
    outer loop
      vertex 2.2694738077799483 1.4085551386261894 0
      vertex 2.4 1.4 0
      vertex 2.4 1.4 1.5
    endloop
  endfacet
  facet normal 0 0 -1
    outer loop
      vertex 1.4340741737109317 2.141180954897479 0
      vertex 1.4085551386261894 2.2694738077799483 0
      vertex 1.4 2.4 0
    endloop
  endfacet
  facet normal 0 0 -1
    outer loop
      vertex 8.35469545189817 1.4085551386261894 0
      vertex 9.856465185386226 1.4761204674887132 0
      vertex 55.65520471030351 1.883977382500312 0
    endloop
  endfacet
  facet normal 0 0 -1
    outer loop
      vertex 2.2699627456755773 1.48044434725937 0
      vertex 2.4 20.599999999999998 0
      vertex 58.95 3.95 0
    endloop
  endfacet
  facet normal 0 0 -1
    outer loop
      vertex 8.35469545189817 1.4085551386261894 0
      vertex 55.65520471030351 1.883977382500312 0
      vertex 55.13052619222005 1.4085551386261894 0
    endloop
  endfacet
  facet normal 0 0 -1
    outer loop
      vertex 2.2699627456755773 1.48044434725937 0
      vertex 113.60000000000001 2.4 0
      vertex 55.65520471030351 1.883977382500312 0
    endloop
  endfacet
  facet normal 0 0 -1
    outer loop
      vertex 1.4 19.599999999999998 0
      vertex 1.4761204674887132 19.98268343236509 0
      vertex 1.6928932188134524 20.307106781186544 0
    endloop
  endfacet
  facet normal 0 0 -1
    outer loop
      vertex 1.5339745962155613 20.099999999999998 0
      vertex 1.6066466597087647 20.208761429008717 0
      vertex 1.6928932188134524 20.307106781186544 0
    endloop
  endfacet
  facet normal 0 0 -1
    outer loop
      vertex 1.4 19.599999999999998 0
      vertex 1.6928932188134524 20.307106781186544 0
      vertex 2.4 20.599999999999998 0
    endloop
  endfacet
  facet normal 0 0 -1
    outer loop
      vertex 1.6928932188134524 20.307106781186544 0
      vertex 2.01731656763491 20.523879532511284 0
      vertex 2.4 20.599999999999998 0
    endloop
  endfacet
  facet normal -0.8314696123025428 0.5555702330196057 4.561722404511142e-19
    outer loop
      vertex 1.5339745962155613 20.099999999999998 0
      vertex 1.6066466597087647 20.208761429008717 1.5
      vertex 1.6066466597087647 20.208761429008717 0
    endloop
  endfacet
  facet normal -0.06540312923013908 0.9978589232386038 0
    outer loop
      vertex 2.2694738077799483 20.59144486137381 0
      vertex 2.2694738077799483 20.59144486137381 1.5
      vertex 2.4 20.599999999999998 0
    endloop
  endfacet
  facet normal -0.831469612302546 0.5555702330196008 5.108158841986619e-16
    outer loop
      vertex 1.5339745962155613 20.099999999999998 0
      vertex 1.5467990780084795 20.119193193354477 1.5
      vertex 1.6066466597087647 20.208761429008717 1.5
    endloop
  endfacet
  facet normal -0.06540312923013908 0.9978589232386038 0
    outer loop
      vertex 2.4 20.599999999999998 0
      vertex 2.2694738077799483 20.59144486137381 1.5
      vertex 2.4 20.599999999999998 1.5
    endloop
  endfacet
  facet normal 0 0 -1
    outer loop
      vertex 2.4 20.599999999999998 0
      vertex 58.95 18.05 0
      vertex 58.95 3.95 0
    endloop
  endfacet
  facet normal 0 0 1
    outer loop
      vertex 56 2.4 1.5
      vertex 58.95 18.05 1.5
      vertex 56 19.599999999999998 1.5
    endloop
  endfacet
  facet normal 0 0 -1
    outer loop
      vertex 2.4 20.599999999999998 0
      vertex 55.020512786104376 20.595919753154423 0
      vertex 58.95 18.05 0
    endloop
  endfacet
  facet normal 0 0 -1
    outer loop
      vertex 2.2699627456755773 1.48044434725937 0
      vertex 58.95 3.95 0
      vertex 113.60000000000001 2.4 0
    endloop
  endfacet
  facet normal 0 0 1
    outer loop
      vertex 56 2.4 1.5
      vertex 73.05 3.95 1.5
      vertex 58.95 3.95 1.5
    endloop
  endfacet
  facet normal 0 0 -1
    outer loop
      vertex 55 1.4 0
      vertex 55.020512786104376 1.4040802468455738 0
      vertex 112.60000000000001 1.4 0
    endloop
  endfacet
  facet normal 0 0 -1
    outer loop
      vertex 55.06230197559687 1.404083487220849 0
      vertex 112.60000000000001 1.4 0
      vertex 55.020512786104376 1.4040802468455738 0
    endloop
  endfacet
  facet normal 0 0 -1
    outer loop
      vertex 55.06230197559687 1.404083487220849 0
      vertex 55.13052619222005 1.4085551386261894 0
      vertex 112.73052619222005 1.4085551386261894 0
    endloop
  endfacet
  facet normal 0 0 -1
    outer loop
      vertex 55.13052619222005 1.4085551386261894 0
      vertex 55.65520471030351 1.883977382500312 0
      vertex 112.73052619222005 1.4085551386261894 0
    endloop
  endfacet
  facet normal 0 -1 0
    outer loop
      vertex 55 1.4 0
      vertex 112.60000000000001 1.4 1.5
      vertex 55 1.4 1.5
    endloop
  endfacet
  facet normal 0 0 -1
    outer loop
      vertex 113.60000000000001 2.4 0
      vertex 58.95 3.95 0
      vertex 73.05 3.95 0
    endloop
  endfacet
  facet normal 0 0 1
    outer loop
      vertex 55 1.4 1.5
      vertex 112.73052619222005 1.4085551386261894 1.5
      vertex 55.13052619222005 1.4085551386261894 1.5
    endloop
  endfacet
  facet normal 0 0 1
    outer loop
      vertex 55.13052619222005 1.4085551386261894 1.5
      vertex 112.73052619222005 1.4085551386261894 1.5
      vertex 55.25881904510252 1.4340741737109317 1.5
    endloop
  endfacet
  facet normal 0 0 1
    outer loop
      vertex 55.25881904510252 1.4340741737109317 1.5
      vertex 112.73052619222005 1.4085551386261894 1.5
      vertex 55.38268343236509 1.4761204674887132 1.5
    endloop
  endfacet
  facet normal 0 0 1
    outer loop
      vertex 55.38268343236509 1.4761204674887132 1.5
      vertex 112.73052619222005 1.4085551386261894 1.5
      vertex 55.5 1.5339745962155613 1.5
    endloop
  endfacet
  facet normal 0 0 1
    outer loop
      vertex 55.5 1.5339745962155613 1.5
      vertex 112.73052619222005 1.4085551386261894 1.5
      vertex 55.60876142900872 1.6066466597087647 1.5
    endloop
  endfacet
  facet normal 0 0 1
    outer loop
      vertex 55.60876142900872 1.6066466597087647 1.5
      vertex 112.73052619222005 1.4085551386261894 1.5
      vertex 55.707106781186546 1.6928932188134524 1.5
    endloop
  endfacet
  facet normal 0 0 1
    outer loop
      vertex 55.707106781186546 1.6928932188134524 1.5
      vertex 112.73052619222005 1.4085551386261894 1.5
      vertex 55.79335334029123 1.7912385709912793 1.5
    endloop
  endfacet
  facet normal 0 0 1
    outer loop
      vertex 55.79335334029123 1.7912385709912793 1.5
      vertex 112.73052619222005 1.4085551386261894 1.5
      vertex 55.86602540378444 1.9 1.5
    endloop
  endfacet
  facet normal 0 0 1
    outer loop
      vertex 55.86602540378444 1.9 1.5
      vertex 112.73052619222005 1.4085551386261894 1.5
      vertex 55.923879532511286 2.01731656763491 1.5
    endloop
  endfacet
  facet normal 0 0 1
    outer loop
      vertex 55.923879532511286 2.01731656763491 1.5
      vertex 112.73052619222005 1.4085551386261894 1.5
      vertex 55.965925826289066 2.141180954897479 1.5
    endloop
  endfacet
  facet normal 0 0 1
    outer loop
      vertex 55.965925826289066 2.141180954897479 1.5
      vertex 112.73052619222005 1.4085551386261894 1.5
      vertex 55.99144486137381 2.2694738077799483 1.5
    endloop
  endfacet
  facet normal 0 0 1
    outer loop
      vertex 55.99144486137381 2.2694738077799483 1.5
      vertex 112.73052619222005 1.4085551386261894 1.5
      vertex 56 2.4 1.5
    endloop
  endfacet
  facet normal 0 0 1
    outer loop
      vertex 56 2.4 1.5
      vertex 112.73052619222005 1.4085551386261894 1.5
      vertex 73.05 3.95 1.5
    endloop
  endfacet
  facet normal 0 0 1
    outer loop
      vertex 56 2.4 1.5
      vertex 58.95 3.95 1.5
      vertex 58.95 18.05 1.5
    endloop
  endfacet
  facet normal 0 0 -1
    outer loop
      vertex 73.05 18.05 0
      vertex 77.95 3.95 0
      vertex 73.05 3.95 0
    endloop
  endfacet
  facet normal 0 0 1
    outer loop
      vertex 73.05 3.95 1.5
      vertex 77.95 3.95 1.5
      vertex 77.95 18.05 1.5
    endloop
  endfacet
  facet normal 0 0 -1
    outer loop
      vertex 113.60000000000001 2.4 0
      vertex 73.05 3.95 0
      vertex 77.95 3.95 0
    endloop
  endfacet
  facet normal 0 0 -1
    outer loop
      vertex 55.06230197559687 1.404083487220849 0
      vertex 112.73052619222005 1.4085551386261894 0
      vertex 112.60000000000001 1.4 0
    endloop
  endfacet
  facet normal 0 0 -1
    outer loop
      vertex 55.65520471030351 1.883977382500312 0
      vertex 113.60000000000001 2.4 0
      vertex 112.73052619222005 1.4085551386261894 0
    endloop
  endfacet
  facet normal 0 -1 0
    outer loop
      vertex 55 1.4 0
      vertex 112.60000000000001 1.4 0
      vertex 112.60000000000001 1.4 1.5
    endloop
  endfacet
  facet normal 0 0 -1
    outer loop
      vertex 113.60000000000001 2.4 0
      vertex 77.95 3.95 0
      vertex 92.05 3.95 0
    endloop
  endfacet
  facet normal 0 0 1
    outer loop
      vertex 112.73052619222005 1.4085551386261894 1.5
      vertex 77.95 3.95 1.5
      vertex 73.05 3.95 1.5
    endloop
  endfacet
  facet normal 0 0 1
    outer loop
      vertex 55 1.4 1.5
      vertex 112.60000000000001 1.4 1.5
      vertex 112.73052619222005 1.4085551386261894 1.5
    endloop
  endfacet
  facet normal 0 0 1
    outer loop
      vertex 112.73052619222005 1.4085551386261894 1.5
      vertex 92.05 3.95 1.5
      vertex 77.95 3.95 1.5
    endloop
  endfacet
  facet normal 0 0 -1
    outer loop
      vertex 113.60000000000001 2.4 0
      vertex 92.05 3.95 0
      vertex 96.95 3.95 0
    endloop
  endfacet
  facet normal 0 0 -1
    outer loop
      vertex 112.73052619222005 1.4085551386261894 0
      vertex 112.98268343236509 1.4761204674887132 0
      vertex 112.85881904510254 1.4340741737109317 0
    endloop
  endfacet
  facet normal 0 0 -1
    outer loop
      vertex 112.73052619222005 1.4085551386261894 0
      vertex 113.30710678118656 1.6928932188134524 0
      vertex 112.98268343236509 1.4761204674887132 0
    endloop
  endfacet
  facet normal 0 0 -1
    outer loop
      vertex 112.98268343236509 1.4761204674887132 0
      vertex 113.30710678118656 1.6928932188134524 0
      vertex 113.10000000000001 1.5339745962155613 0
    endloop
  endfacet
  facet normal 0 0 -1
    outer loop
      vertex 113.10000000000001 1.5339745962155613 0
      vertex 113.30710678118656 1.6928932188134524 0
      vertex 113.20876142900873 1.6066466597087647 0
    endloop
  endfacet
  facet normal 0 0 -1
    outer loop
      vertex 112.73052619222005 1.4085551386261894 0
      vertex 113.60000000000001 2.4 0
      vertex 113.30710678118656 1.6928932188134524 0
    endloop
  endfacet
  facet normal 0 0 -1
    outer loop
      vertex 113.30710678118656 1.6928932188134524 0
      vertex 113.5238795325113 2.01731656763491 0
      vertex 113.39335334029124 1.7912385709912793 0
    endloop
  endfacet
  facet normal 0 0 -1
    outer loop
      vertex 113.39335334029124 1.7912385709912793 0
      vertex 113.5238795325113 2.01731656763491 0
      vertex 113.46602540378444 1.9 0
    endloop
  endfacet
  facet normal 0.06540312923014532 -0.9978589232386033 0
    outer loop
      vertex 112.60000000000001 1.4 0
      vertex 112.73052619222005 1.4085551386261894 0
      vertex 112.60000000000001 1.4 1.5
    endloop
  endfacet
  facet normal 0.19509032201611196 -0.9807852804032335 0
    outer loop
      vertex 112.73052619222005 1.4085551386261894 0
      vertex 112.85881904510254 1.4340741737109317 0
      vertex 112.73052619222005 1.4085551386261894 1.5
    endloop
  endfacet
  facet normal 0.3214394653031883 -0.9469301294950966 -9.138904895474887e-20
    outer loop
      vertex 112.85881904510254 1.4340741737109317 0
      vertex 112.98268343236509 1.4761204674887132 0
      vertex 112.98268343236509 1.4761204674887132 1.5
    endloop
  endfacet
  facet normal 0.4422886902189848 -0.8968727415326964 0
    outer loop
      vertex 112.98268343236509 1.4761204674887132 0
      vertex 113.10000000000001 1.5339745962155613 0
      vertex 112.98268343236509 1.4761204674887132 1.5
    endloop
  endfacet
  facet normal 0.5555702330195933 -0.8314696123025512 0
    outer loop
      vertex 113.10000000000001 1.5339745962155613 0
      vertex 113.20876142900873 1.6066466597087647 0
      vertex 113.10000000000001 1.5339745962155613 1.5
    endloop
  endfacet
  facet normal 0.6593458151000569 -0.751839807478988 2.5750533599540846e-18
    outer loop
      vertex 113.20876142900873 1.6066466597087647 0
      vertex 113.30710678118656 1.6928932188134524 0
      vertex 113.30710678118656 1.6928932188134524 1.5
    endloop
  endfacet
  facet normal 0.7518398074790064 -0.6593458151000359 0
    outer loop
      vertex 113.30710678118656 1.6928932188134524 0
      vertex 113.39335334029124 1.7912385709912793 0
      vertex 113.30710678118656 1.6928932188134524 1.5
    endloop
  endfacet
  facet normal 0.8314696123025549 -0.5555702330195879 -4.383795819509143e-18
    outer loop
      vertex 113.39335334029124 1.7912385709912793 0
      vertex 113.46602540378444 1.9 0
      vertex 113.46602540378444 1.9 1.5
    endloop
  endfacet
  facet normal 0.8968727415326542 -0.44228869021907063 1.0098985350317612e-18
    outer loop
      vertex 113.46602540378444 1.9 0
      vertex 113.5238795325113 2.01731656763491 0
      vertex 113.5238795325113 2.01731656763491 1.5
    endloop
  endfacet
  facet normal 0 0 -1
    outer loop
      vertex 113.30710678118656 1.6928932188134524 0
      vertex 113.60000000000001 2.4 0
      vertex 113.5238795325113 2.01731656763491 0
    endloop
  endfacet
  facet normal 0 0 -1
    outer loop
      vertex 113.5238795325113 2.01731656763491 0
      vertex 113.59144486137382 2.2694738077799483 0
      vertex 113.56592582628907 2.141180954897479 0
    endloop
  endfacet
  facet normal 0 0 -1
    outer loop
      vertex 113.5238795325113 2.01731656763491 0
      vertex 113.60000000000001 2.4 0
      vertex 113.59144486137382 2.2694738077799483 0
    endloop
  endfacet
  facet normal 0.9469301294951262 -0.321439465303101 0
    outer loop
      vertex 113.5238795325113 2.01731656763491 0
      vertex 113.56592582628907 2.141180954897479 0
      vertex 113.5238795325113 2.01731656763491 1.5
    endloop
  endfacet
  facet normal 0.9807852804032315 -0.19509032201612297 2.1566829839509774e-20
    outer loop
      vertex 113.56592582628907 2.141180954897479 0
      vertex 113.59144486137382 2.2694738077799483 0
      vertex 113.59144486137382 2.2694738077799483 1.5
    endloop
  endfacet
  facet normal 0.9978589232386019 -0.06540312923016611 8.897227960108582e-20
    outer loop
      vertex 113.59144486137382 2.2694738077799483 0
      vertex 113.60000000000001 2.4 0
      vertex 113.60000000000001 2.4 1.5
    endloop
  endfacet
  facet normal 0.06540312923014532 -0.9978589232386033 0
    outer loop
      vertex 112.73052619222005 1.4085551386261894 0
      vertex 112.73052619222005 1.4085551386261894 1.5
      vertex 112.60000000000001 1.4 1.5
    endloop
  endfacet
  facet normal 0.19509032201611196 -0.9807852804032335 0
    outer loop
      vertex 112.85881904510254 1.4340741737109317 0
      vertex 112.85881904510254 1.4340741737109317 1.5
      vertex 112.73052619222005 1.4085551386261894 1.5
    endloop
  endfacet
  facet normal 0.3214394653031883 -0.9469301294950966 0
    outer loop
      vertex 112.85881904510254 1.4340741737109317 0
      vertex 112.98268343236509 1.4761204674887132 1.5
      vertex 112.85881904510254 1.4340741737109317 1.5
    endloop
  endfacet
  facet normal 0.4422886902189848 -0.8968727415326964 0
    outer loop
      vertex 113.10000000000001 1.5339745962155613 0
      vertex 113.10000000000001 1.5339745962155613 1.5
      vertex 112.98268343236509 1.4761204674887132 1.5
    endloop
  endfacet
  facet normal 0.5555702330195933 -0.8314696123025512 0
    outer loop
      vertex 113.20876142900873 1.6066466597087647 0
      vertex 113.20876142900873 1.6066466597087647 1.5
      vertex 113.10000000000001 1.5339745962155613 1.5
    endloop
  endfacet
  facet normal 0.6593458151000569 -0.751839807478988 0
    outer loop
      vertex 113.20876142900873 1.6066466597087647 0
      vertex 113.30710678118656 1.6928932188134524 1.5
      vertex 113.20876142900873 1.6066466597087647 1.5
    endloop
  endfacet
  facet normal 0.7518398074790064 -0.6593458151000359 0
    outer loop
      vertex 113.39335334029124 1.7912385709912793 0
      vertex 113.39335334029124 1.7912385709912793 1.5
      vertex 113.30710678118656 1.6928932188134524 1.5
    endloop
  endfacet
  facet normal 0.8314696123025549 -0.5555702330195879 0
    outer loop
      vertex 113.39335334029124 1.7912385709912793 0
      vertex 113.46602540378444 1.9 1.5
      vertex 113.39335334029124 1.7912385709912793 1.5
    endloop
  endfacet
  facet normal 0.8968727415326542 -0.44228869021907063 0
    outer loop
      vertex 113.46602540378444 1.9 0
      vertex 113.5238795325113 2.01731656763491 1.5
      vertex 113.46602540378444 1.9 1.5
    endloop
  endfacet
  facet normal 0.9469301294951262 -0.321439465303101 0
    outer loop
      vertex 113.56592582628907 2.141180954897479 0
      vertex 113.56592582628907 2.141180954897479 1.5
      vertex 113.5238795325113 2.01731656763491 1.5
    endloop
  endfacet
  facet normal 0.9807852804032315 -0.19509032201612297 0
    outer loop
      vertex 113.56592582628907 2.141180954897479 0
      vertex 113.59144486137382 2.2694738077799483 1.5
      vertex 113.56592582628907 2.141180954897479 1.5
    endloop
  endfacet
  facet normal 0.9978589232386019 -0.06540312923016611 0
    outer loop
      vertex 113.59144486137382 2.2694738077799483 0
      vertex 113.60000000000001 2.4 1.5
      vertex 113.59144486137382 2.2694738077799483 1.5
    endloop
  endfacet
  facet normal 0 0 -1
    outer loop
      vertex 113.60000000000001 2.4 0
      vertex 96.95 3.95 0
      vertex 111.05 3.95 0
    endloop
  endfacet
  facet normal 0 0 1
    outer loop
      vertex 112.73052619222005 1.4085551386261894 1.5
      vertex 96.95 3.95 1.5
      vertex 92.05 3.95 1.5
    endloop
  endfacet
  facet normal 0 0 1
    outer loop
      vertex 112.73052619222005 1.4085551386261894 1.5
      vertex 112.85881904510254 1.4340741737109317 1.5
      vertex 112.98268343236509 1.4761204674887132 1.5
    endloop
  endfacet
  facet normal 0 0 1
    outer loop
      vertex 112.73052619222005 1.4085551386261894 1.5
      vertex 112.98268343236509 1.4761204674887132 1.5
      vertex 113.30710678118656 1.6928932188134524 1.5
    endloop
  endfacet
  facet normal 0 0 1
    outer loop
      vertex 112.98268343236509 1.4761204674887132 1.5
      vertex 113.10000000000001 1.5339745962155613 1.5
      vertex 113.30710678118656 1.6928932188134524 1.5
    endloop
  endfacet
  facet normal 0 0 1
    outer loop
      vertex 113.10000000000001 1.5339745962155613 1.5
      vertex 113.20876142900873 1.6066466597087647 1.5
      vertex 113.30710678118656 1.6928932188134524 1.5
    endloop
  endfacet
  facet normal 0 0 1
    outer loop
      vertex 112.73052619222005 1.4085551386261894 1.5
      vertex 113.30710678118656 1.6928932188134524 1.5
      vertex 113.60000000000001 2.4 1.5
    endloop
  endfacet
  facet normal 0 0 1
    outer loop
      vertex 113.30710678118656 1.6928932188134524 1.5
      vertex 113.39335334029124 1.7912385709912793 1.5
      vertex 113.5238795325113 2.01731656763491 1.5
    endloop
  endfacet
  facet normal 0 0 1
    outer loop
      vertex 113.39335334029124 1.7912385709912793 1.5
      vertex 113.46602540378444 1.9 1.5
      vertex 113.5238795325113 2.01731656763491 1.5
    endloop
  endfacet
  facet normal 0 0 1
    outer loop
      vertex 113.30710678118656 1.6928932188134524 1.5
      vertex 113.5238795325113 2.01731656763491 1.5
      vertex 113.60000000000001 2.4 1.5
    endloop
  endfacet
  facet normal 0 0 1
    outer loop
      vertex 113.5238795325113 2.01731656763491 1.5
      vertex 113.56592582628907 2.141180954897479 1.5
      vertex 113.59144486137382 2.2694738077799483 1.5
    endloop
  endfacet
  facet normal 0 0 1
    outer loop
      vertex 113.5238795325113 2.01731656763491 1.5
      vertex 113.59144486137382 2.2694738077799483 1.5
      vertex 113.60000000000001 2.4 1.5
    endloop
  endfacet
  facet normal 0 0 1
    outer loop
      vertex 112.73052619222005 1.4085551386261894 1.5
      vertex 111.05 3.95 1.5
      vertex 96.95 3.95 1.5
    endloop
  endfacet
  facet normal 0 0 -1
    outer loop
      vertex 92.05 18.05 0
      vertex 96.95 3.95 0
      vertex 92.05 3.95 0
    endloop
  endfacet
  facet normal 0 0 1
    outer loop
      vertex 96.95 3.95 1.5
      vertex 96.95 18.05 1.5
      vertex 92.05 3.95 1.5
    endloop
  endfacet
  facet normal 0 0 -1
    outer loop
      vertex 113.60000000000001 2.4 0
      vertex 111.05 3.95 0
      vertex 111.05 18.05 0
    endloop
  endfacet
  facet normal 1 0 0
    outer loop
      vertex 113.60000000000001 2.4 0
      vertex 113.60000000000001 19.599999999999998 0
      vertex 113.60000000000001 2.4 1.5
    endloop
  endfacet
  facet normal 0 0 1
    outer loop
      vertex 112.73052619222005 1.4085551386261894 1.5
      vertex 113.60000000000001 2.4 1.5
      vertex 112.73052619222005 20.59144486137381 1.5
    endloop
  endfacet
  facet normal 0 0 1
    outer loop
      vertex 112.73052619222005 1.4085551386261894 1.5
      vertex 112.73052619222005 20.59144486137381 1.5
      vertex 111.05 3.95 1.5
    endloop
  endfacet
  facet normal 0 0 -1
    outer loop
      vertex 77.95 3.95 0
      vertex 73.05 18.05 0
      vertex 77.95 18.05 0
    endloop
  endfacet
  facet normal 0 0 1
    outer loop
      vertex 77.95 18.05 1.5
      vertex 73.05 18.05 1.5
      vertex 73.05 3.95 1.5
    endloop
  endfacet
  facet normal 0 0 -1
    outer loop
      vertex 55.020512786104376 20.595919753154423 0
      vertex 73.05 18.05 0
      vertex 58.95 18.05 0
    endloop
  endfacet
  facet normal 0 0 -1
    outer loop
      vertex 55.020512786104376 20.595919753154423 0
      vertex 77.95 18.05 0
      vertex 73.05 18.05 0
    endloop
  endfacet
  facet normal 0 0 1
    outer loop
      vertex 56 19.599999999999998 1.5
      vertex 58.95 18.05 1.5
      vertex 73.05 18.05 1.5
    endloop
  endfacet
  facet normal 0 0 -1
    outer loop
      vertex 55 20.599999999999998 0
      vertex 112.60000000000001 20.599999999999998 0
      vertex 55.020512786104376 20.595919753154423 0
    endloop
  endfacet
  facet normal 0 1 0
    outer loop
      vertex 55 20.599999999999998 0
      vertex 55 20.599999999999998 1.5
      vertex 112.60000000000001 20.599999999999998 0
    endloop
  endfacet
  facet normal 0 0 -1
    outer loop
      vertex 55.020512786104376 20.595919753154423 0
      vertex 112.60000000000001 20.599999999999998 0
      vertex 77.95 18.05 0
    endloop
  endfacet
  facet normal 0 0 1
    outer loop
      vertex 56 19.599999999999998 1.5
      vertex 112.73052619222005 20.59144486137381 1.5
      vertex 55.99144486137381 19.73052619222005 1.5
    endloop
  endfacet
  facet normal 0 0 1
    outer loop
      vertex 55.99144486137381 19.73052619222005 1.5
      vertex 112.73052619222005 20.59144486137381 1.5
      vertex 55.965925826289066 19.858819045102518 1.5
    endloop
  endfacet
  facet normal 0 0 1
    outer loop
      vertex 55.965925826289066 19.858819045102518 1.5
      vertex 112.73052619222005 20.59144486137381 1.5
      vertex 55.923879532511286 19.98268343236509 1.5
    endloop
  endfacet
  facet normal 0 0 1
    outer loop
      vertex 55.923879532511286 19.98268343236509 1.5
      vertex 112.73052619222005 20.59144486137381 1.5
      vertex 55.86602540378444 20.099999999999998 1.5
    endloop
  endfacet
  facet normal 0 0 1
    outer loop
      vertex 55.86602540378444 20.099999999999998 1.5
      vertex 112.73052619222005 20.59144486137381 1.5
      vertex 55.79335334029123 20.208761429008717 1.5
    endloop
  endfacet
  facet normal 0 0 1
    outer loop
      vertex 55.707106781186546 20.307106781186544 1.5
      vertex 55.79335334029123 20.208761429008717 1.5
      vertex 112.73052619222005 20.59144486137381 1.5
    endloop
  endfacet
  facet normal 0 0 1
    outer loop
      vertex 55.707106781186546 20.307106781186544 1.5
      vertex 112.73052619222005 20.59144486137381 1.5
      vertex 55.60876142900872 20.393353340291235 1.5
    endloop
  endfacet
  facet normal 0 0 1
    outer loop
      vertex 55 20.599999999999998 1.5
      vertex 55.13052619222005 20.59144486137381 1.5
      vertex 112.60000000000001 20.599999999999998 1.5
    endloop
  endfacet
  facet normal 0 0 1
    outer loop
      vertex 55.13052619222005 20.59144486137381 1.5
      vertex 55.25881904510252 20.565925826289067 1.5
      vertex 112.73052619222005 20.59144486137381 1.5
    endloop
  endfacet
  facet normal 0 0 1
    outer loop
      vertex 55.25881904510252 20.565925826289067 1.5
      vertex 55.38268343236509 20.523879532511284 1.5
      vertex 112.73052619222005 20.59144486137381 1.5
    endloop
  endfacet
  facet normal 0 0 1
    outer loop
      vertex 55.5 20.466025403784435 1.5
      vertex 112.73052619222005 20.59144486137381 1.5
      vertex 55.38268343236509 20.523879532511284 1.5
    endloop
  endfacet
  facet normal 0 0 1
    outer loop
      vertex 55.60876142900872 20.393353340291235 1.5
      vertex 112.73052619222005 20.59144486137381 1.5
      vertex 55.5 20.466025403784435 1.5
    endloop
  endfacet
  facet normal 0 0 1
    outer loop
      vertex 56 19.599999999999998 1.5
      vertex 73.05 18.05 1.5
      vertex 112.73052619222005 20.59144486137381 1.5
    endloop
  endfacet
  facet normal 0 0 -1
    outer loop
      vertex 96.95 3.95 0
      vertex 92.05 18.05 0
      vertex 96.95 18.05 0
    endloop
  endfacet
  facet normal 0 0 1
    outer loop
      vertex 96.95 18.05 1.5
      vertex 92.05 18.05 1.5
      vertex 92.05 3.95 1.5
    endloop
  endfacet
  facet normal 0 0 -1
    outer loop
      vertex 113.60000000000001 2.4 0
      vertex 111.05 18.05 0
      vertex 112.60000000000001 20.599999999999998 0
    endloop
  endfacet
  facet normal 0 0 -1
    outer loop
      vertex 113.60000000000001 2.4 0
      vertex 112.73052619222005 20.59144486137381 0
      vertex 113.60000000000001 19.599999999999998 0
    endloop
  endfacet
  facet normal 0 0 -1
    outer loop
      vertex 113.60000000000001 2.4 0
      vertex 112.60000000000001 20.599999999999998 0
      vertex 112.73052619222005 20.59144486137381 0
    endloop
  endfacet
  facet normal 1 0 0
    outer loop
      vertex 113.60000000000001 2.4 1.5
      vertex 113.60000000000001 19.599999999999998 0
      vertex 113.60000000000001 19.599999999999998 1.5
    endloop
  endfacet
  facet normal 0 0 1
    outer loop
      vertex 112.73052619222005 20.59144486137381 1.5
      vertex 111.05 18.05 1.5
      vertex 111.05 3.95 1.5
    endloop
  endfacet
  facet normal 0 0 1
    outer loop
      vertex 113.60000000000001 2.4 1.5
      vertex 113.60000000000001 19.599999999999998 1.5
      vertex 112.73052619222005 20.59144486137381 1.5
    endloop
  endfacet
  facet normal 0 0 -1
    outer loop
      vertex 112.60000000000001 20.599999999999998 0
      vertex 92.05 18.05 0
      vertex 77.95 18.05 0
    endloop
  endfacet
  facet normal 0 1 0
    outer loop
      vertex 55 20.599999999999998 1.5
      vertex 112.60000000000001 20.599999999999998 1.5
      vertex 112.60000000000001 20.599999999999998 0
    endloop
  endfacet
  facet normal 0 0 1
    outer loop
      vertex 112.73052619222005 20.59144486137381 1.5
      vertex 73.05 18.05 1.5
      vertex 77.95 18.05 1.5
    endloop
  endfacet
  facet normal 0 0 1
    outer loop
      vertex 112.73052619222005 20.59144486137381 1.5
      vertex 77.95 18.05 1.5
      vertex 92.05 18.05 1.5
    endloop
  endfacet
  facet normal 0 0 1
    outer loop
      vertex 55.13052619222005 20.59144486137381 1.5
      vertex 112.73052619222005 20.59144486137381 1.5
      vertex 112.60000000000001 20.599999999999998 1.5
    endloop
  endfacet
  facet normal 0 0 -1
    outer loop
      vertex 112.60000000000001 20.599999999999998 0
      vertex 96.95 18.05 0
      vertex 92.05 18.05 0
    endloop
  endfacet
  facet normal 0 0 -1
    outer loop
      vertex 112.60000000000001 20.599999999999998 0
      vertex 111.05 18.05 0
      vertex 96.95 18.05 0
    endloop
  endfacet
  facet normal 0 0 -1
    outer loop
      vertex 113.60000000000001 19.599999999999998 0
      vertex 113.5238795325113 19.98268343236509 0
      vertex 113.59144486137382 19.73052619222005 0
    endloop
  endfacet
  facet normal 0 0 -1
    outer loop
      vertex 113.59144486137382 19.73052619222005 0
      vertex 113.5238795325113 19.98268343236509 0
      vertex 113.56592582628907 19.858819045102518 0
    endloop
  endfacet
  facet normal 0 0 -1
    outer loop
      vertex 113.60000000000001 19.599999999999998 0
      vertex 113.30710678118656 20.307106781186544 0
      vertex 113.5238795325113 19.98268343236509 0
    endloop
  endfacet
  facet normal 0.9978589232386021 0.06540312923016546 3.9422972959658277e-19
    outer loop
      vertex 113.60000000000001 19.599999999999998 0
      vertex 113.59144486137382 19.73052619222005 0
      vertex 113.59144486137382 19.73052619222005 1.5
    endloop
  endfacet
  facet normal 0.9807852804032309 0.19509032201612625 -7.786825081200893e-19
    outer loop
      vertex 113.59144486137382 19.73052619222005 0
      vertex 113.56592582628907 19.858819045102518 0
      vertex 113.56592582628907 19.858819045102518 1.5
    endloop
  endfacet
  facet normal 0.946930129495128 0.32143946530309586 0
    outer loop
      vertex 113.56592582628907 19.858819045102518 0
      vertex 113.5238795325113 19.98268343236509 0
      vertex 113.56592582628907 19.858819045102518 1.5
    endloop
  endfacet
  facet normal 0 0 -1
    outer loop
      vertex 113.5238795325113 19.98268343236509 0
      vertex 113.30710678118656 20.307106781186544 0
      vertex 113.46602540378444 20.099999999999998 0
    endloop
  endfacet
  facet normal 0 0 -1
    outer loop
      vertex 113.60000000000001 19.599999999999998 0
      vertex 112.73052619222005 20.59144486137381 0
      vertex 113.30710678118656 20.307106781186544 0
    endloop
  endfacet
  facet normal 0 0 -1
    outer loop
      vertex 113.46602540378444 20.099999999999998 0
      vertex 113.30710678118656 20.307106781186544 0
      vertex 113.39335334029124 20.208761429008717 0
    endloop
  endfacet
  facet normal 0 0 -1
    outer loop
      vertex 113.30710678118656 20.307106781186544 0
      vertex 113.10000000000001 20.466025403784435 0
      vertex 113.20876142900873 20.393353340291235 0
    endloop
  endfacet
  facet normal 0 0 -1
    outer loop
      vertex 113.30710678118656 20.307106781186544 0
      vertex 112.73052619222005 20.59144486137381 0
      vertex 113.10000000000001 20.466025403784435 0
    endloop
  endfacet
  facet normal 0 0 -1
    outer loop
      vertex 113.10000000000001 20.466025403784435 0
      vertex 112.85881904510254 20.565925826289067 0
      vertex 112.98268343236509 20.523879532511284 0
    endloop
  endfacet
  facet normal 0 0 -1
    outer loop
      vertex 113.10000000000001 20.466025403784435 0
      vertex 112.73052619222005 20.59144486137381 0
      vertex 112.85881904510254 20.565925826289067 0
    endloop
  endfacet
  facet normal 0.8968727415326521 0.44228869021907463 0
    outer loop
      vertex 113.5238795325113 19.98268343236509 0
      vertex 113.46602540378444 20.099999999999998 0
      vertex 113.5238795325113 19.98268343236509 1.5
    endloop
  endfacet
  facet normal 0.8314696123025523 0.5555702330195917 5.2681779859037834e-20
    outer loop
      vertex 113.46602540378444 20.099999999999998 0
      vertex 113.39335334029124 20.208761429008717 0
      vertex 113.39335334029124 20.208761429008717 1.5
    endloop
  endfacet
  facet normal 0.7518398074790056 0.6593458151000368 0
    outer loop
      vertex 113.39335334029124 20.208761429008717 0
      vertex 113.30710678118656 20.307106781186544 0
      vertex 113.39335334029124 20.208761429008717 1.5
    endloop
  endfacet
  facet normal 0.06540312923014195 0.9978589232386036 2.570983502805499e-19
    outer loop
      vertex 112.60000000000001 20.599999999999998 0
      vertex 112.73052619222005 20.59144486137381 1.5
      vertex 112.73052619222005 20.59144486137381 0
    endloop
  endfacet
  facet normal 0.6593458151000692 0.7518398074789769 5.488376546376108e-19
    outer loop
      vertex 113.30710678118656 20.307106781186544 0
      vertex 113.20876142900873 20.393353340291235 0
      vertex 113.20876142900873 20.393353340291235 1.5
    endloop
  endfacet
  facet normal 0.5555702330195792 0.8314696123025607 0
    outer loop
      vertex 113.20876142900873 20.393353340291235 0
      vertex 113.10000000000001 20.466025403784435 0
      vertex 113.20876142900873 20.393353340291235 1.5
    endloop
  endfacet
  facet normal 0.4422886902189876 0.8968727415326951 1.2397510945686732e-18
    outer loop
      vertex 113.10000000000001 20.466025403784435 0
      vertex 112.98268343236509 20.523879532511284 0
      vertex 112.98268343236509 20.523879532511284 1.5
    endloop
  endfacet
  facet normal 0.321439465303202 0.9469301294950919 0
    outer loop
      vertex 112.98268343236509 20.523879532511284 0
      vertex 112.85881904510254 20.565925826289067 0
      vertex 112.98268343236509 20.523879532511284 1.5
    endloop
  endfacet
  facet normal 0.19509032201610543 0.980785280403235 0
    outer loop
      vertex 112.73052619222005 20.59144486137381 0
      vertex 112.73052619222005 20.59144486137381 1.5
      vertex 112.85881904510254 20.565925826289067 0
    endloop
  endfacet
  facet normal 0.9978589232386021 0.06540312923016546 0
    outer loop
      vertex 113.60000000000001 19.599999999999998 0
      vertex 113.59144486137382 19.73052619222005 1.5
      vertex 113.60000000000001 19.599999999999998 1.5
    endloop
  endfacet
  facet normal 0.9807852804032309 0.19509032201612625 0
    outer loop
      vertex 113.59144486137382 19.73052619222005 0
      vertex 113.56592582628907 19.858819045102518 1.5
      vertex 113.59144486137382 19.73052619222005 1.5
    endloop
  endfacet
  facet normal 0.946930129495128 0.32143946530309586 0
    outer loop
      vertex 113.5238795325113 19.98268343236509 0
      vertex 113.5238795325113 19.98268343236509 1.5
      vertex 113.56592582628907 19.858819045102518 1.5
    endloop
  endfacet
  facet normal 0.8968727415326521 0.44228869021907463 0
    outer loop
      vertex 113.46602540378444 20.099999999999998 0
      vertex 113.46602540378444 20.099999999999998 1.5
      vertex 113.5238795325113 19.98268343236509 1.5
    endloop
  endfacet
  facet normal 0.8314696123025523 0.5555702330195917 0
    outer loop
      vertex 113.46602540378444 20.099999999999998 0
      vertex 113.39335334029124 20.208761429008717 1.5
      vertex 113.46602540378444 20.099999999999998 1.5
    endloop
  endfacet
  facet normal 0.7518398074790056 0.6593458151000368 0
    outer loop
      vertex 113.30710678118656 20.307106781186544 0
      vertex 113.30710678118656 20.307106781186544 1.5
      vertex 113.39335334029124 20.208761429008717 1.5
    endloop
  endfacet
  facet normal 0.06540312923014195 0.9978589232386036 0
    outer loop
      vertex 112.60000000000001 20.599999999999998 0
      vertex 112.60000000000001 20.599999999999998 1.5
      vertex 112.73052619222005 20.59144486137381 1.5
    endloop
  endfacet
  facet normal 0.5555702330195792 0.8314696123025607 0
    outer loop
      vertex 113.10000000000001 20.466025403784435 0
      vertex 113.10000000000001 20.466025403784435 1.5
      vertex 113.20876142900873 20.393353340291235 1.5
    endloop
  endfacet
  facet normal 0.6593458151000692 0.7518398074789769 0
    outer loop
      vertex 113.30710678118656 20.307106781186544 0
      vertex 113.20876142900873 20.393353340291235 1.5
      vertex 113.30710678118656 20.307106781186544 1.5
    endloop
  endfacet
  facet normal 0.4422886902189876 0.8968727415326951 0
    outer loop
      vertex 113.10000000000001 20.466025403784435 0
      vertex 112.98268343236509 20.523879532511284 1.5
      vertex 113.10000000000001 20.466025403784435 1.5
    endloop
  endfacet
  facet normal 0.321439465303202 0.9469301294950919 0
    outer loop
      vertex 112.85881904510254 20.565925826289067 0
      vertex 112.85881904510254 20.565925826289067 1.5
      vertex 112.98268343236509 20.523879532511284 1.5
    endloop
  endfacet
  facet normal 0.19509032201610543 0.980785280403235 0
    outer loop
      vertex 112.85881904510254 20.565925826289067 0
      vertex 112.73052619222005 20.59144486137381 1.5
      vertex 112.85881904510254 20.565925826289067 1.5
    endloop
  endfacet
  facet normal 0 0 1
    outer loop
      vertex 112.73052619222005 20.59144486137381 1.5
      vertex 92.05 18.05 1.5
      vertex 96.95 18.05 1.5
    endloop
  endfacet
  facet normal 0 0 1
    outer loop
      vertex 112.73052619222005 20.59144486137381 1.5
      vertex 96.95 18.05 1.5
      vertex 111.05 18.05 1.5
    endloop
  endfacet
  facet normal 0 0 1
    outer loop
      vertex 113.60000000000001 19.599999999999998 1.5
      vertex 113.59144486137382 19.73052619222005 1.5
      vertex 113.5238795325113 19.98268343236509 1.5
    endloop
  endfacet
  facet normal 0 0 1
    outer loop
      vertex 113.59144486137382 19.73052619222005 1.5
      vertex 113.56592582628907 19.858819045102518 1.5
      vertex 113.5238795325113 19.98268343236509 1.5
    endloop
  endfacet
  facet normal 0 0 1
    outer loop
      vertex 113.60000000000001 19.599999999999998 1.5
      vertex 113.5238795325113 19.98268343236509 1.5
      vertex 112.73052619222005 20.59144486137381 1.5
    endloop
  endfacet
  facet normal 0 0 1
    outer loop
      vertex 113.5238795325113 19.98268343236509 1.5
      vertex 113.46602540378444 20.099999999999998 1.5
      vertex 113.39335334029124 20.208761429008717 1.5
    endloop
  endfacet
  facet normal 0 0 1
    outer loop
      vertex 113.5238795325113 19.98268343236509 1.5
      vertex 113.39335334029124 20.208761429008717 1.5
      vertex 113.20876142900873 20.393353340291235 1.5
    endloop
  endfacet
  facet normal 0 0 1
    outer loop
      vertex 113.5238795325113 19.98268343236509 1.5
      vertex 113.20876142900873 20.393353340291235 1.5
      vertex 112.73052619222005 20.59144486137381 1.5
    endloop
  endfacet
  facet normal 0 0 1
    outer loop
      vertex 113.39335334029124 20.208761429008717 1.5
      vertex 113.30710678118656 20.307106781186544 1.5
      vertex 113.20876142900873 20.393353340291235 1.5
    endloop
  endfacet
  facet normal 0 0 1
    outer loop
      vertex 113.20876142900873 20.393353340291235 1.5
      vertex 113.10000000000001 20.466025403784435 1.5
      vertex 112.98268343236509 20.523879532511284 1.5
    endloop
  endfacet
  facet normal 0 0 1
    outer loop
      vertex 113.20876142900873 20.393353340291235 1.5
      vertex 112.98268343236509 20.523879532511284 1.5
      vertex 112.73052619222005 20.59144486137381 1.5
    endloop
  endfacet
  facet normal 0 0 1
    outer loop
      vertex 112.98268343236509 20.523879532511284 1.5
      vertex 112.85881904510254 20.565925826289067 1.5
      vertex 112.73052619222005 20.59144486137381 1.5
    endloop
  endfacet
  facet normal 0 0 -1
    outer loop
      vertex 2.01731656763491 1.4761204674887132 0
      vertex 1.7912385709912793 1.6066466597087647 0
      vertex 1.6066466597087647 1.7912385709912793 0
    endloop
  endfacet
  facet normal 0 0 -1
    outer loop
      vertex 1.7912385709912793 1.6066466597087647 0
      vertex 1.6928932188134524 1.6928932188134524 0
      vertex 1.6066466597087647 1.7912385709912793 0
    endloop
  endfacet
  facet normal 0 0 -1
    outer loop
      vertex 2.01731656763491 1.4761204674887132 0
      vertex 1.6066466597087647 1.7912385709912793 0
      vertex 1.4 2.4 0
    endloop
  endfacet
  facet normal 0 0 -1
    outer loop
      vertex 1.6066466597087647 1.7912385709912793 0
      vertex 1.4761204674887132 2.01731656763491 0
      vertex 1.4340741737109317 2.141180954897479 0
    endloop
  endfacet
  facet normal 0 0 -1
    outer loop
      vertex 2.141180954897479 1.4340741737109317 0
      vertex 2.01731656763491 1.4761204674887132 0
      vertex 8.35469545189817 1.4085551386261894 0
    endloop
  endfacet
  facet normal 0 0 -1
    outer loop
      vertex 2.141180954897479 1.4340741737109317 0
      vertex 8.35469545189817 1.4085551386261894 0
      vertex 2.2694738077799483 1.4085551386261894 0
    endloop
  endfacet
  facet normal 0 0 -1
    outer loop
      vertex 2.01731656763491 1.4761204674887132 0
      vertex 2.2699627456755773 1.48044434725937 0
      vertex 9.856465185386226 1.4761204674887132 0
    endloop
  endfacet
  facet normal 0 0 -1
    outer loop
      vertex 1.6066466597087647 1.7912385709912793 0
      vertex 1.4340741737109317 2.141180954897479 0
      vertex 1.4 2.4 0
    endloop
  endfacet
  facet normal 0 0 -1
    outer loop
      vertex 2.01731656763491 1.4761204674887132 0
      vertex 9.856465185386226 1.4761204674887132 0
      vertex 8.35469545189817 1.4085551386261894 0
    endloop
  endfacet
  facet normal 0 0 -1
    outer loop
      vertex 2.4 1.4 0
      vertex 8.35469545189817 1.4085551386261894 0
      vertex 55 1.4 0
    endloop
  endfacet
  facet normal 0 -1 0
    outer loop
      vertex 2.4 1.4 0
      vertex 55 1.4 0
      vertex 2.4 1.4 1.5
    endloop
  endfacet
  facet normal 0 0 -1
    outer loop
      vertex 2.2699627456755773 1.48044434725937 0
      vertex 55.65520471030351 1.883977382500312 0
      vertex 9.856465185386226 1.4761204674887132 0
    endloop
  endfacet
  facet normal -0.19509032201612952 -0.9807852804032302 9.614002938746882e-20
    outer loop
      vertex 2.141180954897479 1.4340741737109317 0
      vertex 2.2694738077799483 1.4085551386261894 0
      vertex 2.2694738077799483 1.4085551386261894 8.5
    endloop
  endfacet
  facet normal -0.32143946530316037 -0.946930129495106 0
    outer loop
      vertex 2.141180954897479 1.4340741737109317 0
      vertex 2.141180954897479 1.4340741737109317 8.5
      vertex 2.01731656763491 1.4761204674887132 0
    endloop
  endfacet
  facet normal -0.44228869021900236 -0.8968727415326877 3.304620519625868e-19
    outer loop
      vertex 2.01731656763491 1.4761204674887132 0
      vertex 1.9 1.5339745962155613 8.5
      vertex 1.9 1.5339745962155613 0
    endloop
  endfacet
  facet normal -0.6593458151000695 -0.7518398074789769 4.713967279238495e-19
    outer loop
      vertex 1.7912385709912793 1.6066466597087647 0
      vertex 1.6928932188134524 1.6928932188134524 8.5
      vertex 1.6928932188134524 1.6928932188134524 0
    endloop
  endfacet
  facet normal -0.555570233019602 -0.8314696123025456 0
    outer loop
      vertex 1.9 1.5339745962155613 0
      vertex 1.9 1.5339745962155613 8.5
      vertex 1.7912385709912793 1.6066466597087647 0
    endloop
  endfacet
  facet normal -0.7518398074789769 -0.6593458151000695 0
    outer loop
      vertex 1.6928932188134524 1.6928932188134524 0
      vertex 1.6928932188134524 1.6928932188134524 8.5
      vertex 1.6066466597087647 1.7912385709912793 0
    endloop
  endfacet
  facet normal -0.8314696123025456 -0.555570233019602 6.838132586795062e-19
    outer loop
      vertex 1.6066466597087647 1.7912385709912793 0
      vertex 1.5339745962155613 1.9 8.5
      vertex 1.5339745962155613 1.9 0
    endloop
  endfacet
  facet normal -0.8968727415326877 -0.44228869021900236 0
    outer loop
      vertex 1.5339745962155613 1.9 0
      vertex 1.5339745962155613 1.9 8.5
      vertex 1.4761204674887132 2.01731656763491 0
    endloop
  endfacet
  facet normal -0.946930129495106 -0.32143946530316037 0
    outer loop
      vertex 1.4761204674887132 2.01731656763491 0
      vertex 1.4761204674887132 2.01731656763491 8.5
      vertex 1.4340741737109317 2.141180954897479 0
    endloop
  endfacet
  facet normal -0.9807852804032302 -0.19509032201612952 9.614002938746882e-20
    outer loop
      vertex 1.4340741737109317 2.141180954897479 0
      vertex 1.4085551386261894 2.2694738077799483 8.5
      vertex 1.4085551386261894 2.2694738077799483 0
    endloop
  endfacet
  facet normal -0.9978589232386036 -0.06540312923014245 0
    outer loop
      vertex 1.4085551386261894 2.2694738077799483 0
      vertex 1.4085551386261894 2.2694738077799483 8.5
      vertex 1.4 2.4 0
    endloop
  endfacet
  facet normal -0.06540312923014245 -0.9978589232386036 0
    outer loop
      vertex 2.2694738077799483 1.4085551386261894 0
      vertex 2.4 1.4 1.5
      vertex 2.2694738077799483 1.4085551386261894 8.5
    endloop
  endfacet
  facet normal 0 -1 0
    outer loop
      vertex 2.4 1.4 1.5
      vertex 55 1.4 0
      vertex 2.4 1.4 8.5
    endloop
  endfacet
  facet normal 0 0 -1
    outer loop
      vertex 2.01731656763491 1.4761204674887132 0
      vertex 1.4 2.4 0
      vertex 1.4 19.599999999999998 0
    endloop
  endfacet
  facet normal 0 0 -1
    outer loop
      vertex 2.01731656763491 1.4761204674887132 0
      vertex 2.4 20.599999999999998 0
      vertex 2.2699627456755773 1.48044434725937 0
    endloop
  endfacet
  facet normal -1 0 0
    outer loop
      vertex 1.4 2.4 0
      vertex 1.4 2.4 8.5
      vertex 1.4 19.599999999999998 0
    endloop
  endfacet
  facet normal 0 0 -1
    outer loop
      vertex 8.35469545189817 1.4085551386261894 0
      vertex 55.020512786104376 1.4040802468455738 0
      vertex 55 1.4 0
    endloop
  endfacet
  facet normal 0 0 -1
    outer loop
      vertex 8.35469545189817 1.4085551386261894 0
      vertex 55.13052619222005 1.4085551386261894 0
      vertex 55.06230197559687 1.404083487220849 0
    endloop
  endfacet
  facet normal 0 0 -1
    outer loop
      vertex 8.35469545189817 1.4085551386261894 0
      vertex 55.06230197559687 1.404083487220849 0
      vertex 55.020512786104376 1.4040802468455738 0
    endloop
  endfacet
  facet normal 0 -1 0
    outer loop
      vertex 55 1.4 0
      vertex 55 1.4 1.5
      vertex 2.4 1.4 8.5
    endloop
  endfacet
  facet normal 0.06540312923014178 -0.9978589232386035 9.941292631235665e-20
    outer loop
      vertex 55 1.4 1.5
      vertex 55.13052619222005 1.4085551386261894 1.5
      vertex 55.13052619222005 1.4085551386261894 8.5
    endloop
  endfacet
  facet normal 0.19509032201613277 -0.9807852804032297 4.549760965889883e-20
    outer loop
      vertex 55.13052619222005 1.4085551386261894 1.5
      vertex 55.25881904510252 1.4340741737109317 1.5
      vertex 55.25881904510252 1.4340741737109317 8.5
    endloop
  endfacet
  facet normal 0.3214394653031552 -0.9469301294951078 -1.2712003665660353e-19
    outer loop
      vertex 55.25881904510252 1.4340741737109317 1.5
      vertex 55.38268343236509 1.4761204674887132 1.5
      vertex 55.38268343236509 1.4761204674887132 8.5
    endloop
  endfacet
  facet normal 0.4422886902190064 -0.8968727415326858 -2.7239145185315217e-19
    outer loop
      vertex 55.38268343236509 1.4761204674887132 1.5
      vertex 55.5 1.5339745962155613 1.5
      vertex 55.5 1.5339745962155613 8.5
    endloop
  endfacet
  facet normal 0.5555702330195933 -0.8314696123025512 -2.1980010520971966e-19
    outer loop
      vertex 55.5 1.5339745962155613 1.5
      vertex 55.60876142900872 1.6066466597087647 1.5
      vertex 55.60876142900872 1.6066466597087647 8.5
    endloop
  endfacet
  facet normal 0.6593458151000838 -0.7518398074789644 4.802752008696121e-20
    outer loop
      vertex 55.60876142900872 1.6066466597087647 1.5
      vertex 55.707106781186546 1.6928932188134524 1.5
      vertex 55.707106781186546 1.6928932188134524 8.5
    endloop
  endfacet
  facet normal 0.7518398074789794 -0.6593458151000666 -1.264645512666908e-19
    outer loop
      vertex 55.707106781186546 1.6928932188134524 1.5
      vertex 55.79335334029123 1.7912385709912793 1.5
      vertex 55.79335334029123 1.7912385709912793 8.5
    endloop
  endfacet
  facet normal 0.8314696123025297 -0.5555702330196254 -1.7097885317698183e-20
    outer loop
      vertex 55.79335334029123 1.7912385709912793 1.5
      vertex 55.86602540378444 1.9 1.5
      vertex 55.86602540378444 1.9 8.5
    endloop
  endfacet
  facet normal 0.8968727415326971 -0.4422886902189832 1.0780790524738205e-19
    outer loop
      vertex 55.86602540378444 1.9 1.5
      vertex 55.923879532511286 2.01731656763491 1.5
      vertex 55.923879532511286 2.01731656763491 8.5
    endloop
  endfacet
  facet normal 0.9469301294951098 -0.32143946530314976 2.484780837353414e-19
    outer loop
      vertex 55.923879532511286 2.01731656763491 1.5
      vertex 55.965925826289066 2.141180954897479 1.5
      vertex 55.965925826289066 2.141180954897479 8.5
    endloop
  endfacet
  facet normal 0.9807852804032314 -0.19509032201612297 4.621463537037808e-21
    outer loop
      vertex 55.965925826289066 2.141180954897479 1.5
      vertex 55.99144486137381 2.2694738077799483 1.5
      vertex 55.99144486137381 2.2694738077799483 8.5
    endloop
  endfacet
  facet normal 0.997858923238602 -0.06540312923016611 1.9065488485946963e-20
    outer loop
      vertex 55.99144486137381 2.2694738077799483 1.5
      vertex 56 2.4 1.5
      vertex 56 2.4 8.5
    endloop
  endfacet
  facet normal -0.19509032201612952 -0.9807852804032302 0
    outer loop
      vertex 2.141180954897479 1.4340741737109317 0
      vertex 2.2694738077799483 1.4085551386261894 8.5
      vertex 2.141180954897479 1.4340741737109317 8.5
    endloop
  endfacet
  facet normal -0.32143946530316037 -0.946930129495106 0
    outer loop
      vertex 2.01731656763491 1.4761204674887132 0
      vertex 2.141180954897479 1.4340741737109317 8.5
      vertex 2.01731656763491 1.4761204674887132 8.5
    endloop
  endfacet
  facet normal -0.44228869021900236 -0.8968727415326877 0
    outer loop
      vertex 2.01731656763491 1.4761204674887132 0
      vertex 2.01731656763491 1.4761204674887132 8.5
      vertex 1.9 1.5339745962155613 8.5
    endloop
  endfacet
  facet normal -0.555570233019602 -0.8314696123025456 0
    outer loop
      vertex 1.7912385709912793 1.6066466597087647 0
      vertex 1.9 1.5339745962155613 8.5
      vertex 1.7912385709912793 1.6066466597087647 8.5
    endloop
  endfacet
  facet normal -0.6593458151000695 -0.7518398074789769 0
    outer loop
      vertex 1.7912385709912793 1.6066466597087647 0
      vertex 1.7912385709912793 1.6066466597087647 8.5
      vertex 1.6928932188134524 1.6928932188134524 8.5
    endloop
  endfacet
  facet normal -0.7518398074789769 -0.6593458151000695 0
    outer loop
      vertex 1.6066466597087647 1.7912385709912793 0
      vertex 1.6928932188134524 1.6928932188134524 8.5
      vertex 1.6066466597087647 1.7912385709912793 8.5
    endloop
  endfacet
  facet normal -0.8314696123025456 -0.555570233019602 0
    outer loop
      vertex 1.6066466597087647 1.7912385709912793 0
      vertex 1.6066466597087647 1.7912385709912793 8.5
      vertex 1.5339745962155613 1.9 8.5
    endloop
  endfacet
  facet normal -0.8968727415326877 -0.44228869021900236 0
    outer loop
      vertex 1.4761204674887132 2.01731656763491 0
      vertex 1.5339745962155613 1.9 8.5
      vertex 1.4761204674887132 2.01731656763491 8.5
    endloop
  endfacet
  facet normal -0.946930129495106 -0.32143946530316037 0
    outer loop
      vertex 1.4340741737109317 2.141180954897479 0
      vertex 1.4761204674887132 2.01731656763491 8.5
      vertex 1.4340741737109317 2.141180954897479 8.5
    endloop
  endfacet
  facet normal -0.9807852804032302 -0.19509032201612952 0
    outer loop
      vertex 1.4340741737109317 2.141180954897479 0
      vertex 1.4340741737109317 2.141180954897479 8.5
      vertex 1.4085551386261894 2.2694738077799483 8.5
    endloop
  endfacet
  facet normal -0.9978589232386036 -0.06540312923014245 0
    outer loop
      vertex 1.4 2.4 0
      vertex 1.4085551386261894 2.2694738077799483 8.5
      vertex 1.4 2.4 8.5
    endloop
  endfacet
  facet normal -0.06540312923014245 -0.9978589232386035 0
    outer loop
      vertex 2.4 1.4 1.5
      vertex 2.4 1.4 8.5
      vertex 2.2694738077799483 1.4085551386261894 8.5
    endloop
  endfacet
  facet normal 0 0 1
    outer loop
      vertex 2.141180954897479 1.4340741737109317 8.5
      vertex 2.2694738077799483 1.4085551386261894 8.5
      vertex 2.4 1.4 8.5
    endloop
  endfacet
  facet normal 0 0 1
    outer loop
      vertex 2.141180954897479 1.4340741737109317 8.5
      vertex 2.4 1.4 8.5
      vertex 2.01731656763491 1.4761204674887132 8.5
    endloop
  endfacet
  facet normal 0 0 1
    outer loop
      vertex 2.01731656763491 1.4761204674887132 8.5
      vertex 1.7912385709912793 1.6066466597087647 8.5
      vertex 1.9 1.5339745962155613 8.5
    endloop
  endfacet
  facet normal 0 0 1
    outer loop
      vertex 2.01731656763491 1.4761204674887132 8.5
      vertex 1.6066466597087647 1.7912385709912793 8.5
      vertex 1.7912385709912793 1.6066466597087647 8.5
    endloop
  endfacet
  facet normal 0 0 1
    outer loop
      vertex 1.7912385709912793 1.6066466597087647 8.5
      vertex 1.6066466597087647 1.7912385709912793 8.5
      vertex 1.6928932188134524 1.6928932188134524 8.5
    endloop
  endfacet
  facet normal 0 0 1
    outer loop
      vertex 1.6066466597087647 1.7912385709912793 8.5
      vertex 1.4761204674887132 2.01731656763491 8.5
      vertex 1.5339745962155613 1.9 8.5
    endloop
  endfacet
  facet normal 0 0 1
    outer loop
      vertex 2.01731656763491 1.4761204674887132 8.5
      vertex 1.4 2.4 8.5
      vertex 1.6066466597087647 1.7912385709912793 8.5
    endloop
  endfacet
  facet normal 0 0 1
    outer loop
      vertex 1.6066466597087647 1.7912385709912793 8.5
      vertex 1.4 2.4 8.5
      vertex 1.4761204674887132 2.01731656763491 8.5
    endloop
  endfacet
  facet normal 0 0 1
    outer loop
      vertex 1.4761204674887132 2.01731656763491 8.5
      vertex 1.4 2.4 8.5
      vertex 1.4340741737109317 2.141180954897479 8.5
    endloop
  endfacet
  facet normal 0 0 1
    outer loop
      vertex 1.4340741737109317 2.141180954897479 8.5
      vertex 1.4 2.4 8.5
      vertex 1.4085551386261894 2.2694738077799483 8.5
    endloop
  endfacet
  facet normal 0 0 1
    outer loop
      vertex 2.01731656763491 1.4761204674887132 8.5
      vertex 2.4 1.4 8.5
      vertex 55.38268343236509 1.4761204674887132 8.5
    endloop
  endfacet
  facet normal 0 0 1
    outer loop
      vertex 2.01731656763491 1.4761204674887132 8.5
      vertex 2.01731656763491 20.523879532511284 8.5
      vertex 1.4 2.4 8.5
    endloop
  endfacet
  facet normal 0 -1 0
    outer loop
      vertex 55 1.4 1.5
      vertex 55 1.4 8.5
      vertex 2.4 1.4 8.5
    endloop
  endfacet
  facet normal 0.06540312923014178 -0.9978589232386035 0
    outer loop
      vertex 55 1.4 1.5
      vertex 55.13052619222005 1.4085551386261894 8.5
      vertex 55 1.4 8.5
    endloop
  endfacet
  facet normal 0.19509032201613277 -0.9807852804032297 0
    outer loop
      vertex 55.13052619222005 1.4085551386261894 1.5
      vertex 55.25881904510252 1.4340741737109317 8.5
      vertex 55.13052619222005 1.4085551386261894 8.5
    endloop
  endfacet
  facet normal 0.3214394653031552 -0.9469301294951078 0
    outer loop
      vertex 55.25881904510252 1.4340741737109317 1.5
      vertex 55.38268343236509 1.4761204674887132 8.5
      vertex 55.25881904510252 1.4340741737109317 8.5
    endloop
  endfacet
  facet normal 0.4422886902190064 -0.8968727415326858 0
    outer loop
      vertex 55.38268343236509 1.4761204674887132 1.5
      vertex 55.5 1.5339745962155613 8.5
      vertex 55.38268343236509 1.4761204674887132 8.5
    endloop
  endfacet
  facet normal 0.5555702330195933 -0.8314696123025512 0
    outer loop
      vertex 55.5 1.5339745962155613 1.5
      vertex 55.60876142900872 1.6066466597087647 8.5
      vertex 55.5 1.5339745962155613 8.5
    endloop
  endfacet
  facet normal 0.6593458151000838 -0.7518398074789644 0
    outer loop
      vertex 55.60876142900872 1.6066466597087647 1.5
      vertex 55.707106781186546 1.6928932188134524 8.5
      vertex 55.60876142900872 1.6066466597087647 8.5
    endloop
  endfacet
  facet normal 0.7518398074789794 -0.6593458151000666 0
    outer loop
      vertex 55.707106781186546 1.6928932188134524 1.5
      vertex 55.79335334029123 1.7912385709912793 8.5
      vertex 55.707106781186546 1.6928932188134524 8.5
    endloop
  endfacet
  facet normal 0.8314696123025297 -0.5555702330196254 0
    outer loop
      vertex 55.79335334029123 1.7912385709912793 1.5
      vertex 55.86602540378444 1.9 8.5
      vertex 55.79335334029123 1.7912385709912793 8.5
    endloop
  endfacet
  facet normal 0.8968727415326971 -0.4422886902189832 0
    outer loop
      vertex 55.86602540378444 1.9 1.5
      vertex 55.923879532511286 2.01731656763491 8.5
      vertex 55.86602540378444 1.9 8.5
    endloop
  endfacet
  facet normal 0.9469301294951098 -0.32143946530314976 0
    outer loop
      vertex 55.923879532511286 2.01731656763491 1.5
      vertex 55.965925826289066 2.141180954897479 8.5
      vertex 55.923879532511286 2.01731656763491 8.5
    endloop
  endfacet
  facet normal 0.9807852804032314 -0.19509032201612297 0
    outer loop
      vertex 55.965925826289066 2.141180954897479 1.5
      vertex 55.99144486137381 2.2694738077799483 8.5
      vertex 55.965925826289066 2.141180954897479 8.5
    endloop
  endfacet
  facet normal 0.997858923238602 -0.06540312923016611 0
    outer loop
      vertex 55.99144486137381 2.2694738077799483 1.5
      vertex 56 2.4 8.5
      vertex 55.99144486137381 2.2694738077799483 8.5
    endloop
  endfacet
  facet normal 0 0 1
    outer loop
      vertex 2.4 1.4 8.5
      vertex 55 1.4 8.5
      vertex 55.38268343236509 1.4761204674887132 8.5
    endloop
  endfacet
  facet normal 0 0 1
    outer loop
      vertex 55 1.4 8.5
      vertex 55.13052619222005 1.4085551386261894 8.5
      vertex 55.38268343236509 1.4761204674887132 8.5
    endloop
  endfacet
  facet normal 0 0 1
    outer loop
      vertex 55.13052619222005 1.4085551386261894 8.5
      vertex 55.25881904510252 1.4340741737109317 8.5
      vertex 55.38268343236509 1.4761204674887132 8.5
    endloop
  endfacet
  facet normal 0 0 1
    outer loop
      vertex 55.38268343236509 1.4761204674887132 8.5
      vertex 55.5 1.5339745962155613 8.5
      vertex 55.60876142900872 1.6066466597087647 8.5
    endloop
  endfacet
  facet normal 0 0 1
    outer loop
      vertex 55.38268343236509 1.4761204674887132 8.5
      vertex 55.60876142900872 1.6066466597087647 8.5
      vertex 55.79335334029123 1.7912385709912793 8.5
    endloop
  endfacet
  facet normal 0 0 1
    outer loop
      vertex 55.60876142900872 1.6066466597087647 8.5
      vertex 55.707106781186546 1.6928932188134524 8.5
      vertex 55.79335334029123 1.7912385709912793 8.5
    endloop
  endfacet
  facet normal 0 0 1
    outer loop
      vertex 55.38268343236509 1.4761204674887132 8.5
      vertex 55.79335334029123 1.7912385709912793 8.5
      vertex 56 2.4 8.5
    endloop
  endfacet
  facet normal 0 0 1
    outer loop
      vertex 55.79335334029123 1.7912385709912793 8.5
      vertex 55.86602540378444 1.9 8.5
      vertex 55.923879532511286 2.01731656763491 8.5
    endloop
  endfacet
  facet normal 0 0 1
    outer loop
      vertex 55.79335334029123 1.7912385709912793 8.5
      vertex 55.923879532511286 2.01731656763491 8.5
      vertex 56 2.4 8.5
    endloop
  endfacet
  facet normal 0 0 1
    outer loop
      vertex 55.923879532511286 2.01731656763491 8.5
      vertex 55.965925826289066 2.141180954897479 8.5
      vertex 56 2.4 8.5
    endloop
  endfacet
  facet normal 0 0 1
    outer loop
      vertex 55.965925826289066 2.141180954897479 8.5
      vertex 55.99144486137381 2.2694738077799483 8.5
      vertex 56 2.4 8.5
    endloop
  endfacet
  facet normal 1 0 0
    outer loop
      vertex 56 2.4 1.5
      vertex 56 19.599999999999998 8.5
      vertex 56 2.4 8.5
    endloop
  endfacet
  facet normal 0 0 1
    outer loop
      vertex 2.01731656763491 1.4761204674887132 8.5
      vertex 55.38268343236509 1.4761204674887132 8.5
      vertex 55.38268343236509 20.523879532511284 8.5
    endloop
  endfacet
  facet normal 0 0 1
    outer loop
      vertex 55.38268343236509 1.4761204674887132 8.5
      vertex 56 2.4 8.5
      vertex 55.38268343236509 20.523879532511284 8.5
    endloop
  endfacet
  facet normal 0 0 -1
    outer loop
      vertex 2.01731656763491 1.4761204674887132 0
      vertex 1.4 19.599999999999998 0
      vertex 2.4 20.599999999999998 0
    endloop
  endfacet
  facet normal 0 0 -1
    outer loop
      vertex 1.4 19.599999999999998 0
      vertex 1.4085551386261894 19.73052619222005 0
      vertex 1.4761204674887132 19.98268343236509 0
    endloop
  endfacet
  facet normal 0 0 -1
    outer loop
      vertex 1.4085551386261894 19.73052619222005 0
      vertex 1.4340741737109317 19.858819045102518 0
      vertex 1.4761204674887132 19.98268343236509 0
    endloop
  endfacet
  facet normal 0 0 -1
    outer loop
      vertex 1.4761204674887132 19.98268343236509 0
      vertex 1.5339745962155613 20.099999999999998 0
      vertex 1.6928932188134524 20.307106781186544 0
    endloop
  endfacet
  facet normal 0 0 -1
    outer loop
      vertex 1.6928932188134524 20.307106781186544 0
      vertex 1.7912385709912793 20.393353340291235 0
      vertex 2.01731656763491 20.523879532511284 0
    endloop
  endfacet
  facet normal 0 0 -1
    outer loop
      vertex 1.7912385709912793 20.393353340291235 0
      vertex 1.9 20.466025403784435 0
      vertex 2.01731656763491 20.523879532511284 0
    endloop
  endfacet
  facet normal 0 0 -1
    outer loop
      vertex 2.01731656763491 20.523879532511284 0
      vertex 2.141180954897479 20.565925826289067 0
      vertex 2.4 20.599999999999998 0
    endloop
  endfacet
  facet normal 0 0 -1
    outer loop
      vertex 2.141180954897479 20.565925826289067 0
      vertex 2.2694738077799483 20.59144486137381 0
      vertex 2.4 20.599999999999998 0
    endloop
  endfacet
  facet normal -0.7518398074789762 0.6593458151000703 0
    outer loop
      vertex 1.6066466597087647 20.208761429008717 0
      vertex 1.6066466597087647 20.208761429008717 1.5
      vertex 1.6928932188134524 20.307106781186544 0
    endloop
  endfacet
  facet normal 0 1 0
    outer loop
      vertex 2.4 20.599999999999998 0
      vertex 2.4 20.599999999999998 1.5
      vertex 55 20.599999999999998 0
    endloop
  endfacet
  facet normal -0.9978589232386036 0.06540312923014178 8.186946872782314e-20
    outer loop
      vertex 1.4 19.599999999999998 0
      vertex 1.4085551386261894 19.73052619222005 8.5
      vertex 1.4085551386261894 19.73052619222005 0
    endloop
  endfacet
  facet normal -0.9807852804032295 0.19509032201613274 3.7468619719093146e-20
    outer loop
      vertex 1.4085551386261894 19.73052619222005 0
      vertex 1.4340741737109317 19.858819045102518 8.5
      vertex 1.4340741737109317 19.858819045102518 0
    endloop
  endfacet
  facet normal -0.9469301294951078 0.3214394653031552 0
    outer loop
      vertex 1.4340741737109317 19.858819045102518 0
      vertex 1.4340741737109317 19.858819045102518 8.5
      vertex 1.4761204674887132 19.98268343236509 0
    endloop
  endfacet
  facet normal -0.8968727415326858 0.4422886902190064 -2.243223721143606e-19
    outer loop
      vertex 1.4761204674887132 19.98268343236509 0
      vertex 1.5339745962155613 20.099999999999998 8.5
      vertex 1.5339745962155613 20.099999999999998 0
    endloop
  endfacet
  facet normal -0.659345815100082 0.751839807478966 5.375374874003083e-19
    outer loop
      vertex 1.6928932188134524 20.307106781186544 0
      vertex 1.7912385709912793 20.393353340291235 8.5
      vertex 1.7912385709912793 20.393353340291235 0
    endloop
  endfacet
  facet normal -0.5555702330195879 0.8314696123025549 -7.736110269722016e-19
    outer loop
      vertex 1.7912385709912793 20.393353340291235 0
      vertex 1.9 20.466025403784435 8.5
      vertex 1.9 20.466025403784435 0
    endloop
  endfacet
  facet normal -0.44228869021900513 0.8968727415326865 0
    outer loop
      vertex 1.9 20.466025403784435 0
      vertex 1.9 20.466025403784435 8.5
      vertex 2.01731656763491 20.523879532511284 0
    endloop
  endfacet
  facet normal -0.3214394653031741 0.9469301294951015 -3.0358552367720123e-19
    outer loop
      vertex 2.01731656763491 20.523879532511284 0
      vertex 2.141180954897479 20.565925826289067 8.5
      vertex 2.141180954897479 20.565925826289067 0
    endloop
  endfacet
  facet normal -0.19509032201612295 0.9807852804032314 0
    outer loop
      vertex 2.141180954897479 20.565925826289067 0
      vertex 2.141180954897479 20.565925826289067 8.5
      vertex 2.2694738077799483 20.59144486137381 0
    endloop
  endfacet
  facet normal -0.8314696123025276 0.5555702330196286 0
    outer loop
      vertex 1.5339745962155613 20.099999999999998 0
      vertex 1.5339745962155613 20.099999999999998 8.5
      vertex 1.5467990780084795 20.119193193354477 1.5
    endloop
  endfacet
  facet normal -0.7518398074789762 0.6593458151000703 -6.473574765483315e-19
    outer loop
      vertex 1.6928932188134524 20.307106781186544 0
      vertex 1.6066466597087647 20.208761429008717 1.5
      vertex 1.6066466597087647 20.208761429008717 8.5
    endloop
  endfacet
  facet normal -0.19509032201612297 0.9807852804032315 0
    outer loop
      vertex 2.2694738077799483 20.59144486137381 0
      vertex 2.141180954897479 20.565925826289067 8.5
      vertex 2.2694738077799483 20.59144486137381 1.5
    endloop
  endfacet
  facet normal -0.8314696123025461 0.555570233019601 -6.81701350631088e-20
    outer loop
      vertex 1.5467990780084795 20.119193193354477 1.5
      vertex 1.6066466597087647 20.208761429008717 8.5
      vertex 1.6066466597087647 20.208761429008717 1.5
    endloop
  endfacet
  facet normal -0.06540312923013908 0.9978589232386038 0
    outer loop
      vertex 2.2694738077799483 20.59144486137381 1.5
      vertex 2.2694738077799483 20.59144486137381 8.5
      vertex 2.4 20.599999999999998 1.5
    endloop
  endfacet
  facet normal 0 1 0
    outer loop
      vertex 2.4 20.599999999999998 1.5
      vertex 2.4 20.599999999999998 8.5
      vertex 55 20.599999999999998 0
    endloop
  endfacet
  facet normal 1 0 0
    outer loop
      vertex 56 2.4 1.5
      vertex 56 19.599999999999998 1.5
      vertex 56 19.599999999999998 8.5
    endloop
  endfacet
  facet normal 0 0 -1
    outer loop
      vertex 2.4 20.599999999999998 0
      vertex 55 20.599999999999998 0
      vertex 55.020512786104376 20.595919753154423 0
    endloop
  endfacet
  facet normal 0 1 0
    outer loop
      vertex 55 20.599999999999998 0
      vertex 2.4 20.599999999999998 8.5
      vertex 55 20.599999999999998 1.5
    endloop
  endfacet
  facet normal 0.997858923238602 0.06540312923016545 8.447779919926773e-20
    outer loop
      vertex 56 19.599999999999998 1.5
      vertex 55.99144486137381 19.73052619222005 1.5
      vertex 55.99144486137381 19.73052619222005 8.5
    endloop
  endfacet
  facet normal 0.9807852804032309 0.19509032201612622 -1.6686053745430485e-19
    outer loop
      vertex 55.99144486137381 19.73052619222005 1.5
      vertex 55.965925826289066 19.858819045102518 1.5
      vertex 55.965925826289066 19.858819045102518 8.5
    endloop
  endfacet
  facet normal 0.9469301294951115 0.3214394653031446 9.394851829080047e-20
    outer loop
      vertex 55.965925826289066 19.858819045102518 1.5
      vertex 55.923879532511286 19.98268343236509 1.5
      vertex 55.923879532511286 19.98268343236509 8.5
    endloop
  endfacet
  facet normal 0.7518398074789787 0.6593458151000674 0
    outer loop
      vertex 55.707106781186546 20.307106781186544 1.5
      vertex 55.707106781186546 20.307106781186544 8.5
      vertex 55.79335334029123 20.208761429008717 1.5
    endloop
  endfacet
  facet normal 0.6593458151000962 0.7518398074789534 6.213776973479649e-19
    outer loop
      vertex 55.707106781186546 20.307106781186544 1.5
      vertex 55.60876142900872 20.393353340291235 1.5
      vertex 55.60876142900872 20.393353340291235 8.5
    endloop
  endfacet
  facet normal 0.5555702330195792 0.8314696123025606 3.2884025242937755e-19
    outer loop
      vertex 55.60876142900872 20.393353340291235 1.5
      vertex 55.5 20.466025403784435 1.5
      vertex 55.5 20.466025403784435 8.5
    endloop
  endfacet
  facet normal 0.06540312923013841 0.9978589232386038 0
    outer loop
      vertex 55 20.599999999999998 1.5
      vertex 55 20.599999999999998 8.5
      vertex 55.13052619222005 20.59144486137381 1.5
    endloop
  endfacet
  facet normal 0.3214394653031689 0.9469301294951031 0
    outer loop
      vertex 55.25881904510252 20.565925826289067 1.5
      vertex 55.25881904510252 20.565925826289067 8.5
      vertex 55.38268343236509 20.523879532511284 1.5
    endloop
  endfacet
  facet normal 0.19509032201612622 0.9807852804032309 0
    outer loop
      vertex 55.13052619222005 20.59144486137381 1.5
      vertex 55.13052619222005 20.59144486137381 8.5
      vertex 55.25881904510252 20.565925826289067 1.5
    endloop
  endfacet
  facet normal 0.44228869021900913 0.8968727415326844 2.09793372309009e-19
    outer loop
      vertex 55.5 20.466025403784435 1.5
      vertex 55.38268343236509 20.523879532511284 1.5
      vertex 55.38268343236509 20.523879532511284 8.5
    endloop
  endfacet
  facet normal 0.8968727415326953 0.4422886902189873 -2.3669180221047156e-19
    outer loop
      vertex 55.923879532511286 19.98268343236509 1.5
      vertex 55.86602540378444 20.099999999999998 1.5
      vertex 55.86602540378444 20.099999999999998 8.5
    endloop
  endfacet
  facet normal 0.8314696123025271 0.5555702330196293 -9.109979803129731e-19
    outer loop
      vertex 55.86602540378444 20.099999999999998 1.5
      vertex 55.79335334029123 20.208761429008717 1.5
      vertex 55.79335334029123 20.208761429008717 8.5
    endloop
  endfacet
  facet normal -1 0 0
    outer loop
      vertex 1.4 2.4 8.5
      vertex 1.4 19.599999999999998 8.5
      vertex 1.4 19.599999999999998 0
    endloop
  endfacet
  facet normal 0 0 1
    outer loop
      vertex 1.4 2.4 8.5
      vertex 1.5339745962155613 20.099999999999998 8.5
      vertex 1.4 19.599999999999998 8.5
    endloop
  endfacet
  facet normal 0 0 1
    outer loop
      vertex 1.4 2.4 8.5
      vertex 2.01731656763491 20.523879532511284 8.5
      vertex 1.5339745962155613 20.099999999999998 8.5
    endloop
  endfacet
  facet normal 0 0 1
    outer loop
      vertex 2.01731656763491 1.4761204674887132 8.5
      vertex 55.38268343236509 20.523879532511284 8.5
      vertex 2.01731656763491 20.523879532511284 8.5
    endloop
  endfacet
  facet normal -0.9978589232386036 0.06540312923014178 0
    outer loop
      vertex 1.4 19.599999999999998 0
      vertex 1.4 19.599999999999998 8.5
      vertex 1.4085551386261894 19.73052619222005 8.5
    endloop
  endfacet
  facet normal -0.9807852804032295 0.19509032201613274 0
    outer loop
      vertex 1.4085551386261894 19.73052619222005 0
      vertex 1.4085551386261894 19.73052619222005 8.5
      vertex 1.4340741737109317 19.858819045102518 8.5
    endloop
  endfacet
  facet normal -0.9469301294951078 0.3214394653031552 0
    outer loop
      vertex 1.4761204674887132 19.98268343236509 0
      vertex 1.4340741737109317 19.858819045102518 8.5
      vertex 1.4761204674887132 19.98268343236509 8.5
    endloop
  endfacet
  facet normal -0.8968727415326858 0.4422886902190064 0
    outer loop
      vertex 1.4761204674887132 19.98268343236509 0
      vertex 1.4761204674887132 19.98268343236509 8.5
      vertex 1.5339745962155613 20.099999999999998 8.5
    endloop
  endfacet
  facet normal -0.7518398074789762 0.6593458151000703 0
    outer loop
      vertex 1.6928932188134524 20.307106781186544 0
      vertex 1.6066466597087647 20.208761429008717 8.5
      vertex 1.6928932188134524 20.307106781186544 8.5
    endloop
  endfacet
  facet normal -0.659345815100082 0.751839807478966 0
    outer loop
      vertex 1.6928932188134524 20.307106781186544 0
      vertex 1.6928932188134524 20.307106781186544 8.5
      vertex 1.7912385709912793 20.393353340291235 8.5
    endloop
  endfacet
  facet normal -0.5555702330195879 0.8314696123025549 0
    outer loop
      vertex 1.7912385709912793 20.393353340291235 0
      vertex 1.7912385709912793 20.393353340291235 8.5
      vertex 1.9 20.466025403784435 8.5
    endloop
  endfacet
  facet normal -0.44228869021900513 0.8968727415326865 0
    outer loop
      vertex 2.01731656763491 20.523879532511284 0
      vertex 1.9 20.466025403784435 8.5
      vertex 2.01731656763491 20.523879532511284 8.5
    endloop
  endfacet
  facet normal -0.3214394653031741 0.9469301294951015 0
    outer loop
      vertex 2.01731656763491 20.523879532511284 0
      vertex 2.01731656763491 20.523879532511284 8.5
      vertex 2.141180954897479 20.565925826289067 8.5
    endloop
  endfacet
  facet normal -0.8314696123025428 0.5555702330196058 -9.021022233600092e-17
    outer loop
      vertex 1.5467990780084795 20.119193193354477 1.5
      vertex 1.5339745962155613 20.099999999999998 8.5
      vertex 1.6066466597087647 20.208761429008717 8.5
    endloop
  endfacet
  facet normal -0.19509032201612297 0.9807852804032314 0
    outer loop
      vertex 2.2694738077799483 20.59144486137381 1.5
      vertex 2.141180954897479 20.565925826289067 8.5
      vertex 2.2694738077799483 20.59144486137381 8.5
    endloop
  endfacet
  facet normal -0.06540312923013908 0.9978589232386038 0
    outer loop
      vertex 2.4 20.599999999999998 1.5
      vertex 2.2694738077799483 20.59144486137381 8.5
      vertex 2.4 20.599999999999998 8.5
    endloop
  endfacet
  facet normal 0 0 1
    outer loop
      vertex 1.4 19.599999999999998 8.5
      vertex 1.5339745962155613 20.099999999999998 8.5
      vertex 1.4085551386261894 19.73052619222005 8.5
    endloop
  endfacet
  facet normal 0 0 1
    outer loop
      vertex 1.4085551386261894 19.73052619222005 8.5
      vertex 1.5339745962155613 20.099999999999998 8.5
      vertex 1.4340741737109317 19.858819045102518 8.5
    endloop
  endfacet
  facet normal 0 0 1
    outer loop
      vertex 1.4340741737109317 19.858819045102518 8.5
      vertex 1.5339745962155613 20.099999999999998 8.5
      vertex 1.4761204674887132 19.98268343236509 8.5
    endloop
  endfacet
  facet normal 0 0 1
    outer loop
      vertex 1.5339745962155613 20.099999999999998 8.5
      vertex 1.7912385709912793 20.393353340291235 8.5
      vertex 1.6066466597087647 20.208761429008717 8.5
    endloop
  endfacet
  facet normal 0 0 1
    outer loop
      vertex 1.6066466597087647 20.208761429008717 8.5
      vertex 1.7912385709912793 20.393353340291235 8.5
      vertex 1.6928932188134524 20.307106781186544 8.5
    endloop
  endfacet
  facet normal 0 0 1
    outer loop
      vertex 1.5339745962155613 20.099999999999998 8.5
      vertex 2.01731656763491 20.523879532511284 8.5
      vertex 1.7912385709912793 20.393353340291235 8.5
    endloop
  endfacet
  facet normal 0 0 1
    outer loop
      vertex 1.7912385709912793 20.393353340291235 8.5
      vertex 2.01731656763491 20.523879532511284 8.5
      vertex 1.9 20.466025403784435 8.5
    endloop
  endfacet
  facet normal 0 0 1
    outer loop
      vertex 2.01731656763491 20.523879532511284 8.5
      vertex 2.4 20.599999999999998 8.5
      vertex 2.141180954897479 20.565925826289067 8.5
    endloop
  endfacet
  facet normal 0 0 1
    outer loop
      vertex 2.141180954897479 20.565925826289067 8.5
      vertex 2.4 20.599999999999998 8.5
      vertex 2.2694738077799483 20.59144486137381 8.5
    endloop
  endfacet
  facet normal 0 0 1
    outer loop
      vertex 2.01731656763491 20.523879532511284 8.5
      vertex 55.38268343236509 20.523879532511284 8.5
      vertex 2.4 20.599999999999998 8.5
    endloop
  endfacet
  facet normal 0 0 1
    outer loop
      vertex 56 2.4 8.5
      vertex 56 19.599999999999998 8.5
      vertex 55.38268343236509 20.523879532511284 8.5
    endloop
  endfacet
  facet normal 0 1 0
    outer loop
      vertex 55 20.599999999999998 1.5
      vertex 2.4 20.599999999999998 8.5
      vertex 55 20.599999999999998 8.5
    endloop
  endfacet
  facet normal 0.997858923238602 0.06540312923016545 0
    outer loop
      vertex 56 19.599999999999998 1.5
      vertex 55.99144486137381 19.73052619222005 8.5
      vertex 56 19.599999999999998 8.5
    endloop
  endfacet
  facet normal 0.9807852804032309 0.19509032201612622 0
    outer loop
      vertex 55.99144486137381 19.73052619222005 1.5
      vertex 55.965925826289066 19.858819045102518 8.5
      vertex 55.99144486137381 19.73052619222005 8.5
    endloop
  endfacet
  facet normal 0.9469301294951115 0.3214394653031446 0
    outer loop
      vertex 55.965925826289066 19.858819045102518 1.5
      vertex 55.923879532511286 19.98268343236509 8.5
      vertex 55.965925826289066 19.858819045102518 8.5
    endloop
  endfacet
  facet normal 0.6593458151000962 0.7518398074789534 0
    outer loop
      vertex 55.707106781186546 20.307106781186544 1.5
      vertex 55.60876142900872 20.393353340291235 8.5
      vertex 55.707106781186546 20.307106781186544 8.5
    endloop
  endfacet
  facet normal 0.5555702330195792 0.8314696123025606 0
    outer loop
      vertex 55.60876142900872 20.393353340291235 1.5
      vertex 55.5 20.466025403784435 8.5
      vertex 55.60876142900872 20.393353340291235 8.5
    endloop
  endfacet
  facet normal 0.06540312923013841 0.9978589232386038 0
    outer loop
      vertex 55.13052619222005 20.59144486137381 1.5
      vertex 55 20.599999999999998 8.5
      vertex 55.13052619222005 20.59144486137381 8.5
    endloop
  endfacet
  facet normal 0.19509032201612622 0.9807852804032309 0
    outer loop
      vertex 55.25881904510252 20.565925826289067 1.5
      vertex 55.13052619222005 20.59144486137381 8.5
      vertex 55.25881904510252 20.565925826289067 8.5
    endloop
  endfacet
  facet normal 0.44228869021900913 0.8968727415326844 0
    outer loop
      vertex 55.5 20.466025403784435 1.5
      vertex 55.38268343236509 20.523879532511284 8.5
      vertex 55.5 20.466025403784435 8.5
    endloop
  endfacet
  facet normal 0.3214394653031689 0.9469301294951031 0
    outer loop
      vertex 55.38268343236509 20.523879532511284 1.5
      vertex 55.25881904510252 20.565925826289067 8.5
      vertex 55.38268343236509 20.523879532511284 8.5
    endloop
  endfacet
  facet normal 0.8968727415326953 0.4422886902189873 0
    outer loop
      vertex 55.923879532511286 19.98268343236509 1.5
      vertex 55.86602540378444 20.099999999999998 8.5
      vertex 55.923879532511286 19.98268343236509 8.5
    endloop
  endfacet
  facet normal 0.8314696123025271 0.5555702330196293 0
    outer loop
      vertex 55.86602540378444 20.099999999999998 1.5
      vertex 55.79335334029123 20.208761429008717 8.5
      vertex 55.86602540378444 20.099999999999998 8.5
    endloop
  endfacet
  facet normal 0.7518398074789787 0.6593458151000674 0
    outer loop
      vertex 55.79335334029123 20.208761429008717 1.5
      vertex 55.707106781186546 20.307106781186544 8.5
      vertex 55.79335334029123 20.208761429008717 8.5
    endloop
  endfacet
  facet normal 0 0 1
    outer loop
      vertex 2.4 20.599999999999998 8.5
      vertex 55.38268343236509 20.523879532511284 8.5
      vertex 55 20.599999999999998 8.5
    endloop
  endfacet
  facet normal 0 0 1
    outer loop
      vertex 56 19.599999999999998 8.5
      vertex 55.99144486137381 19.73052619222005 8.5
      vertex 55.965925826289066 19.858819045102518 8.5
    endloop
  endfacet
  facet normal 0 0 1
    outer loop
      vertex 56 19.599999999999998 8.5
      vertex 55.965925826289066 19.858819045102518 8.5
      vertex 55.38268343236509 20.523879532511284 8.5
    endloop
  endfacet
  facet normal 0 0 1
    outer loop
      vertex 55.965925826289066 19.858819045102518 8.5
      vertex 55.923879532511286 19.98268343236509 8.5
      vertex 55.86602540378444 20.099999999999998 8.5
    endloop
  endfacet
  facet normal 0 0 1
    outer loop
      vertex 55.965925826289066 19.858819045102518 8.5
      vertex 55.707106781186546 20.307106781186544 8.5
      vertex 55.38268343236509 20.523879532511284 8.5
    endloop
  endfacet
  facet normal 0 0 1
    outer loop
      vertex 55.707106781186546 20.307106781186544 8.5
      vertex 55.60876142900872 20.393353340291235 8.5
      vertex 55.38268343236509 20.523879532511284 8.5
    endloop
  endfacet
  facet normal 0 0 1
    outer loop
      vertex 55.13052619222005 20.59144486137381 8.5
      vertex 55.38268343236509 20.523879532511284 8.5
      vertex 55.25881904510252 20.565925826289067 8.5
    endloop
  endfacet
  facet normal 0 0 1
    outer loop
      vertex 55 20.599999999999998 8.5
      vertex 55.38268343236509 20.523879532511284 8.5
      vertex 55.13052619222005 20.59144486137381 8.5
    endloop
  endfacet
  facet normal 0 0 1
    outer loop
      vertex 55.60876142900872 20.393353340291235 8.5
      vertex 55.5 20.466025403784435 8.5
      vertex 55.38268343236509 20.523879532511284 8.5
    endloop
  endfacet
  facet normal 0 0 1
    outer loop
      vertex 55.965925826289066 19.858819045102518 8.5
      vertex 55.86602540378444 20.099999999999998 8.5
      vertex 55.707106781186546 20.307106781186544 8.5
    endloop
  endfacet
  facet normal 0 0 1
    outer loop
      vertex 55.707106781186546 20.307106781186544 8.5
      vertex 55.86602540378444 20.099999999999998 8.5
      vertex 55.79335334029123 20.208761429008717 8.5
    endloop
  endfacet
  facet normal 0 1 0
    outer loop
      vertex 96.95 3.95 0
      vertex 96.95 3.95 1.5
      vertex 111.05 3.95 0
    endloop
  endfacet
  facet normal 0 1 0
    outer loop
      vertex 111.05 3.95 0
      vertex 96.95 3.95 1.5
      vertex 111.05 3.95 1.5
    endloop
  endfacet
  facet normal 1 0 0
    outer loop
      vertex 96.95 3.95 0
      vertex 96.95 18.05 1.5
      vertex 96.95 3.95 1.5
    endloop
  endfacet
  facet normal -1 0 0
    outer loop
      vertex 111.05 3.95 0
      vertex 111.05 3.95 1.5
      vertex 111.05 18.05 0
    endloop
  endfacet
  facet normal 1 0 0
    outer loop
      vertex 96.95 18.05 1.5
      vertex 96.95 3.95 0
      vertex 96.95 18.05 0
    endloop
  endfacet
  facet normal -1 0 0
    outer loop
      vertex 111.05 3.95 1.5
      vertex 111.05 18.05 1.5
      vertex 111.05 18.05 0
    endloop
  endfacet
  facet normal 0 -1 0
    outer loop
      vertex 111.05 18.05 1.5
      vertex 96.95 18.05 0
      vertex 111.05 18.05 0
    endloop
  endfacet
  facet normal 0 -1 0
    outer loop
      vertex 96.95 18.05 1.5
      vertex 96.95 18.05 0
      vertex 111.05 18.05 1.5
    endloop
  endfacet
  facet normal 0 1 0
    outer loop
      vertex 92.05 3.95 0
      vertex 77.95 3.95 0
      vertex 77.95 3.95 1.5
    endloop
  endfacet
  facet normal 1 0 0
    outer loop
      vertex 77.95 18.05 1.5
      vertex 77.95 3.95 1.5
      vertex 77.95 3.95 0
    endloop
  endfacet
  facet normal 0 1 0
    outer loop
      vertex 77.95 3.95 1.5
      vertex 92.05 3.95 1.5
      vertex 92.05 3.95 0
    endloop
  endfacet
  facet normal -1 0 0
    outer loop
      vertex 92.05 18.05 0
      vertex 92.05 3.95 0
      vertex 92.05 3.95 1.5
    endloop
  endfacet
  facet normal 1 0 0
    outer loop
      vertex 77.95 3.95 0
      vertex 77.95 18.05 0
      vertex 77.95 18.05 1.5
    endloop
  endfacet
  facet normal 0 -1 0
    outer loop
      vertex 92.05 18.05 1.5
      vertex 77.95 18.05 1.5
      vertex 77.95 18.05 0
    endloop
  endfacet
  facet normal -1 0 0
    outer loop
      vertex 92.05 3.95 1.5
      vertex 92.05 18.05 1.5
      vertex 92.05 18.05 0
    endloop
  endfacet
  facet normal 0 -1 0
    outer loop
      vertex 77.95 18.05 0
      vertex 92.05 18.05 0
      vertex 92.05 18.05 1.5
    endloop
  endfacet
  facet normal 0 1 0
    outer loop
      vertex 58.95 3.95 1.5
      vertex 73.05 3.95 0
      vertex 58.95 3.95 0
    endloop
  endfacet
  facet normal 0 1 0
    outer loop
      vertex 73.05 3.95 0
      vertex 58.95 3.95 1.5
      vertex 73.05 3.95 1.5
    endloop
  endfacet
  facet normal 1 0 0
    outer loop
      vertex 58.95 3.95 1.5
      vertex 58.95 3.95 0
      vertex 58.95 18.05 1.5
    endloop
  endfacet
  facet normal -1 0 0
    outer loop
      vertex 73.05 18.05 0
      vertex 73.05 3.95 0
      vertex 73.05 3.95 1.5
    endloop
  endfacet
  facet normal 1 0 0
    outer loop
      vertex 58.95 3.95 0
      vertex 58.95 18.05 0
      vertex 58.95 18.05 1.5
    endloop
  endfacet
  facet normal -1 0 0
    outer loop
      vertex 73.05 18.05 0
      vertex 73.05 3.95 1.5
      vertex 73.05 18.05 1.5
    endloop
  endfacet
  facet normal 0 -1 0
    outer loop
      vertex 58.95 18.05 0
      vertex 73.05 18.05 1.5
      vertex 58.95 18.05 1.5
    endloop
  endfacet
  facet normal 0 -1 0
    outer loop
      vertex 58.95 18.05 0
      vertex 73.05 18.05 0
      vertex 73.05 18.05 1.5
    endloop
  endfacet
endsolid OpenSCAD_Model
